<?xml version="1.0"?>
<svg xmlns="http://www.w3.org/2000/svg" viewBox="0 0 26 26" enable-background="new 0 0 26 26">
    <path style="text-indent:0;text-align:start;line-height:normal;text-transform:none;block-progression:tb;-inkscape-font-specification:Bitstream Vera Sans" d="M 7.5 0.09375 C 4.1857452 1.5905102 1.5905102 4.1857452 0.09375 7.5 L 1.90625 8.3125 C 3.2094898 5.4267548 5.4267548 3.2094898 8.3125 1.90625 L 7.5 0.09375 z M 13 2 C 6.9367124 2 2 6.9367124 2 13 C 2 19.063287 6.9367123 24 13 24 C 19.063287 24 24 19.063287 24 13 C 24 6.9367123 19.063287 2 13 2 z M 13 4 C 17.982407 4 22 8.0175927 22 13 C 22 17.982407 17.982407 22 13 22 C 8.0175927 22 4 17.982407 4 13 C 4 8.0175926 8.0175926 4 13 4 z M 12 6 L 12 11.875 C 11.691152 12.149751 11.5 12.554111 11.5 13 C 11.5 13.828427 12.171573 14.5 13 14.5 C 13.020506 14.5 13.042194 14.500815 13.0625 14.5 L 16.28125 17.71875 L 17.71875 16.28125 L 14.5 13.0625 C 14.500815 13.042194 14.5 13.020506 14.5 13 C 14.5 12.554111 14.308848 12.149751 14 11.875 L 14 6 L 12 6 z M 24.09375 17.6875 C 22.78719 20.580597 20.566847 22.868137 17.71875 24.0625 L 18.5 25.9375 C 21.851903 24.531863 24.41281 21.806903 25.90625 18.5 L 24.09375 17.6875 z" overflow="visible" enable-background="accumulate" font-family="Bitstream Vera Sans"/>
</svg>
